<?xml version="1.0" standalone="no"?>
<!DOCTYPE svg PUBLIC "-//W3C//DTD SVG 20010904//EN"
 "http://www.w3.org/TR/2001/REC-SVG-20010904/DTD/svg10.dtd">
<svg version="1.0" xmlns="http://www.w3.org/2000/svg"
 width="300.000000pt" height="300.000000pt" viewBox="0 0 300.000000 300.000000"
 preserveAspectRatio="xMidYMid meet">
<metadata>
Created by potrace 1.11, written by Peter Selinger 2001-2013
</metadata>
<g transform="translate(0.000000,300.000000) scale(0.100000,-0.100000)"
fill="#000000" stroke="none">
<path d="M740 1496 l0 -1446 145 0 145 0 2 543 3 542 420 6 c474 7 505 11 672
89 249 116 412 323 467 592 21 103 21 333 0 436 -58 281 -251 515 -506 614
-163 63 -141 61 -770 65 l-578 4 0 -1445z m1166 1131 c193 -65 325 -206 380
-408 23 -86 24 -261 1 -349 -57 -217 -209 -369 -427 -427 -56 -15 -117 -18
-445 -18 l-380 0 -3 605 c-1 333 0 611 3 618 4 11 80 13 397 10 l393 -4 81
-27z"/>
</g>
</svg>
